<?xml version="1.0" encoding="utf-8"?>
<!-- Generator: Adobe Illustrator 26.0.3, SVG Export Plug-In . SVG Version: 6.00 Build 0)  -->
<svg version="1.1" id="Layer_2" xmlns="http://www.w3.org/2000/svg" xmlns:xlink="http://www.w3.org/1999/xlink" x="0px" y="0px"
	 viewBox="0 0 360 360" style="enable-background:new 0 0 360 360;" xml:space="preserve">
<style type="text/css">
	.st0{fill:#FFFFFF;stroke:#231F20;stroke-width:6;stroke-miterlimit:10;}
	.st1{fill:#FFF797;stroke:#231F20;stroke-width:6;stroke-miterlimit:10;}
</style>
<path class="st0" d="M309.44,180.63c19.51-18.41,41.54-44.51,41.54-73.45C350.98,51.41,305.77,6.21,250,6.21
	c-27.18,0-51.85,20.59-70,38.06C161.85,26.8,137.18,6.21,110,6.21C54.23,6.21,9.02,51.41,9.02,107.18
	c0,28.94,22.03,55.04,41.54,73.45c-18.74,18.33-40.22,43.9-40.22,72.18c0,55.77,45.21,100.98,100.98,100.98
	c26.53,0,50.67-20.09,68.69-36.82c18.02,16.73,42.16,36.82,68.69,36.82c55.77,0,100.98-45.21,100.98-100.98
	C349.67,224.53,328.18,198.96,309.44,180.63z"/>
<circle class="st1" cx="180" cy="180" r="83.79"/>
</svg>
